<svg xmlns="http://www.w3.org/2000/svg" xmlns:xlink="http://www.w3.org/1999/xlink" viewBox="0 0 248.99 57.67"><defs><style>.cls-1{fill:#fff;}.cls-2{mask:url(#mask);}.cls-3{fill:#38bde9;}</style><mask id="mask" x="21.51" y="0" width="57.14" height="57.67" maskUnits="userSpaceOnUse"><g id="mask-2"><polygon id="path-1" class="cls-1" points="50.09 0 78.66 0 78.66 57.67 50.09 57.67 21.52 57.67 21.52 0 50.09 0"/></g></mask></defs><title>资源 2</title><g id="图层_2" data-name="图层 2"><g id="图层_1-2" data-name="图层 1"><path id="UB.com" class="cls-1" d="M107,5.28h8.6V21.9a14.12,14.12,0,0,1-.77,4.67,10.16,10.16,0,0,1-2.41,3.84A9.55,9.55,0,0,1,109,32.72a17.37,17.37,0,0,1-6,.93,38,38,0,0,1-4.44-.28,11.73,11.73,0,0,1-4-1.13,10.24,10.24,0,0,1-3-2.41,8.89,8.89,0,0,1-1.83-3.21,16.81,16.81,0,0,1-.8-4.72V5.28h8.6v17a4.85,4.85,0,0,0,1.26,3.56,5.43,5.43,0,0,0,7,0A4.84,4.84,0,0,0,107,22.3Zm14.33,0h16.12a8.77,8.77,0,0,1,6.19,2,6.48,6.48,0,0,1,2.16,5,6.22,6.22,0,0,1-1.54,4.24,6.71,6.71,0,0,1-3,1.86,7.81,7.81,0,0,1,4.42,2.49,6.83,6.83,0,0,1,1.42,4.42,7.66,7.66,0,0,1-1,3.9,7.48,7.48,0,0,1-2.76,2.74,9.24,9.24,0,0,1-3.27.91c-1.94.25-3.23.38-3.86.38H121.32ZM130,16.21h3.74a4.34,4.34,0,0,0,2.81-.69,2.51,2.51,0,0,0,.79-2,2.38,2.38,0,0,0-.79-1.9,4.22,4.22,0,0,0-2.75-.68H130Zm0,11h4.39a4.88,4.88,0,0,0,3.14-.79,2.66,2.66,0,0,0,.91-2.12,2.46,2.46,0,0,0-.9-2,5.06,5.06,0,0,0-3.17-.75H130Zm24.54.75a2.51,2.51,0,0,0-1.89.75,2.38,2.38,0,0,0-.79,1.85,2.55,2.55,0,0,0,.79,1.89,2.71,2.71,0,0,0,1.89.75,2.81,2.81,0,0,0,1.9-.75,2.41,2.41,0,0,0,.79-1.89,2.38,2.38,0,0,0-.79-1.85A2.53,2.53,0,0,0,154.55,27.92Zm23.22-2.65,7.36.83a10.35,10.35,0,0,1-2,4,9.23,9.23,0,0,1-3.55,2.61,13.88,13.88,0,0,1-5.48.93,20.22,20.22,0,0,1-5.36-.6,9.23,9.23,0,0,1-3.68-1.94A9.81,9.81,0,0,1,162.65,28a11,11,0,0,1-.88-4.8A11.31,11.31,0,0,1,162.84,18,9.53,9.53,0,0,1,165,15.23a9.81,9.81,0,0,1,2.77-1.79,15.25,15.25,0,0,1,5.81-.94c3.29,0,5.81.59,7.54,1.77a9.36,9.36,0,0,1,3.64,5.18l-7.29,1a3.29,3.29,0,0,0-1.24-2,4,4,0,0,0-2.43-.66,3.92,3.92,0,0,0-3.11,1.38,6.27,6.27,0,0,0-1.18,4.17,5.48,5.48,0,0,0,1.17,3.79,3.9,3.9,0,0,0,3,1.29,4.15,4.15,0,0,0,2.56-.78A4.65,4.65,0,0,0,177.77,25.27Zm10-2.15a10.12,10.12,0,0,1,3.12-7.62,11.65,11.65,0,0,1,8.43-3q6.06,0,9.17,3.52a10.21,10.21,0,0,1,2.49,7,10.15,10.15,0,0,1-3.09,7.64q-3.09,3-8.55,3a12,12,0,0,1-7.88-2.47A9.91,9.91,0,0,1,187.73,23.12Zm7.76,0a6.07,6.07,0,0,0,1.1,4,3.45,3.45,0,0,0,2.75,1.29,3.41,3.41,0,0,0,2.74-1.27A6.28,6.28,0,0,0,203.16,23a5.92,5.92,0,0,0-1.09-3.91,3.38,3.38,0,0,0-2.68-1.28,3.48,3.48,0,0,0-2.79,1.3A6,6,0,0,0,195.49,23.1ZM214.72,13H222v2.95a10.1,10.1,0,0,1,3.15-2.63,8.6,8.6,0,0,1,3.83-.78,7.33,7.33,0,0,1,3.82.86,6.3,6.3,0,0,1,2.3,2.55,11.6,11.6,0,0,1,3.33-2.69,8.55,8.55,0,0,1,3.71-.72,6.68,6.68,0,0,1,5.08,1.93q1.82,1.94,1.82,6V33.16h-7.76V21.65a3.18,3.18,0,0,0-.53-2,2.34,2.34,0,0,0-1.94-1.05,2.73,2.73,0,0,0-2.2,1,4.88,4.88,0,0,0-.84,3.18V33.16H228V22a7,7,0,0,0-.15-1.8A2.47,2.47,0,0,0,227,19a2.3,2.3,0,0,0-1.43-.47,2.74,2.74,0,0,0-2.18,1,5.11,5.11,0,0,0-.86,3.31V33.16h-7.76Z"/><path id="UnitedBitcoin-Copy" class="cls-1" d="M89.62,41.26v9a5.68,5.68,0,0,0,1.61,4.35,6.26,6.26,0,0,0,4.43,1.44,6.35,6.35,0,0,0,4.45-1.46,5.66,5.66,0,0,0,1.58-4.33v-9H99.32v9a3.92,3.92,0,0,1-.88,2.78A3.67,3.67,0,0,1,92,50.3v-9ZM112.1,45a3.85,3.85,0,0,0-1.73.38A4.27,4.27,0,0,0,109,46.48V45.26h-2.32V55.77H109V49.45a2.85,2.85,0,0,1,.85-1.93,2.12,2.12,0,0,1,1.51-.61c1.58,0,2.37.85,2.37,2.58v6.28H116V49.28C116,46.4,114.72,45,112.1,45Zm10.28-4a1.55,1.55,0,0,0-1.12.43,1.43,1.43,0,0,0-.44,1.1,1.5,1.5,0,0,0,.44,1.11,1.67,1.67,0,0,0,2.24,0A1.49,1.49,0,0,0,124,42.5a1.51,1.51,0,0,0-.45-1.1A1.6,1.6,0,0,0,122.38,41Zm-1.16,4.29V55.77h2.32V45.26ZM132,41.87l-2.31,1v2.44h-1.89v1.91h1.89V53.1a2.75,2.75,0,0,0,.61,1.94,2.54,2.54,0,0,0,2,.73h1.77V53.86h-1.38a.66.66,0,0,1-.53-.19.83.83,0,0,1-.17-.57V47.17h2.34V45.26H132ZM142.91,45a4.69,4.69,0,0,1,4,1.74,7,7,0,0,1,1.26,4.43h-7.87a3.85,3.85,0,0,0,.8,2.24,2.42,2.42,0,0,0,1.93.77,2.84,2.84,0,0,0,1.73-.49,3.45,3.45,0,0,0,.93-1.28H148a4.75,4.75,0,0,1-1.47,2.46,5.21,5.21,0,0,1-3.49,1.2,4.92,4.92,0,0,1-3.72-1.44,5.6,5.6,0,0,1-1.46-4.11,5.66,5.66,0,0,1,1.38-3.92A4.53,4.53,0,0,1,142.91,45Zm.06,1.89a2.41,2.41,0,0,0-1.81.65,3.33,3.33,0,0,0-.85,1.89h5.4A2.51,2.51,0,0,0,143,46.87Zm16.8-5.9h2.32v14.8h-2.15V54.65a3.8,3.8,0,0,1-3.17,1.4,4.42,4.42,0,0,1-3.66-1.64,6.17,6.17,0,0,1-1.22-3.95,6,6,0,0,1,1.2-3.84A4.25,4.25,0,0,1,156.64,45a3.8,3.8,0,0,1,3.13,1.72Zm-2.58,5.88a2.59,2.59,0,0,0-2.29,1,4.33,4.33,0,0,0-.63,2.58,4.69,4.69,0,0,0,.59,2.62,2.45,2.45,0,0,0,2.25,1.1,2.4,2.4,0,0,0,2.1-1.08,4.59,4.59,0,0,0,.65-2.52v-.16a4.1,4.1,0,0,0-.82-2.66A2.29,2.29,0,0,0,157.19,46.85Zm9.88-5.59h6.64a5.1,5.1,0,0,1,3.4,1,3.31,3.31,0,0,1,1.14,2.62A3.2,3.2,0,0,1,176,48.19a3.57,3.57,0,0,1,2.16,1.15,4.21,4.21,0,0,1-.8,5.57,6.49,6.49,0,0,1-3.61.86h-6.67Zm2.38,2v4.14h3.63a3.67,3.67,0,0,0,2.16-.5,2.06,2.06,0,0,0,.63-1.65,1.75,1.75,0,0,0-.63-1.5,3.57,3.57,0,0,0-2.11-.49Zm0,6.09v4.52h3.94a4.4,4.4,0,0,0,2.11-.43,1.86,1.86,0,0,0,1-1.75,2.16,2.16,0,0,0-.71-1.79,3.94,3.94,0,0,0-2.32-.55ZM184.79,41a1.55,1.55,0,0,0-1.12.43,1.43,1.43,0,0,0-.44,1.1,1.5,1.5,0,0,0,.44,1.11,1.67,1.67,0,0,0,2.24,0,1.49,1.49,0,0,0,.47-1.11,1.51,1.51,0,0,0-.45-1.1A1.6,1.6,0,0,0,184.79,41Zm-1.16,4.29V55.77H186V45.26Zm10.81-3.39-2.31,1v2.44h-1.89v1.91h1.89V53.1a2.75,2.75,0,0,0,.61,1.94,2.54,2.54,0,0,0,2,.73h1.77V53.86h-1.39a.65.65,0,0,1-.52-.19.78.78,0,0,1-.17-.57V47.17h2.34V45.26h-2.34ZM205.56,45a4.7,4.7,0,0,0-3.84,1.64,5.8,5.8,0,0,0-1.28,3.88,5.9,5.9,0,0,0,1.3,4,4.69,4.69,0,0,0,3.78,1.58,5,5,0,0,0,3.27-1,5.14,5.14,0,0,0,1.63-3.18h-2.3a2.33,2.33,0,0,1-2.58,2.3,2.3,2.3,0,0,1-2-.95,4.47,4.47,0,0,1-.71-2.73,4.25,4.25,0,0,1,.73-2.66,2.36,2.36,0,0,1,2-1,2.77,2.77,0,0,1,1.69.48,2.53,2.53,0,0,1,.83,1.49h2.3a4.46,4.46,0,0,0-1.57-3A5.27,5.27,0,0,0,205.56,45Zm13.9,0a4.94,4.94,0,0,1,3.84,1.56,6.21,6.21,0,0,1,0,7.93,5.51,5.51,0,0,1-7.72,0,6.21,6.21,0,0,1,0-7.93A4.88,4.88,0,0,1,219.46,45Zm0,1.89A2.52,2.52,0,0,0,217.22,48a4.46,4.46,0,0,0-.67,2.52,4.36,4.36,0,0,0,.67,2.5,2.77,2.77,0,0,0,4.48,0,4.91,4.91,0,0,0,0-5A2.55,2.55,0,0,0,219.46,46.87ZM230.68,41a1.54,1.54,0,0,0-1.12.43,1.44,1.44,0,0,0-.45,1.1,1.51,1.51,0,0,0,.45,1.11,1.54,1.54,0,0,0,1.12.43,1.57,1.57,0,0,0,1.12-.43,1.48,1.48,0,0,0,.46-1.11,1.51,1.51,0,0,0-.44-1.1A1.62,1.62,0,0,0,230.68,41Zm-1.16,4.29V55.77h2.32V45.26ZM242.46,45a3.81,3.81,0,0,0-1.72.38,4.16,4.16,0,0,0-1.38,1.12V45.26H237V55.77h2.32V49.45a2.85,2.85,0,0,1,.85-1.93,2.1,2.1,0,0,1,1.5-.61c1.59,0,2.38.85,2.38,2.58v6.28h2.32V49.28C246.41,46.4,245.09,45,242.46,45Z"/><g id="Page-1-Copy-4"><g id="Group-3"><g class="cls-2"><path id="Fill-1" class="cls-3" d="M64.57,27.22q13.89,0,14.08-13.61a14.9,14.9,0,0,0-.55-4.55Q75.4,0,60,0H28.59l-2,12.4H40.37q8,0,9.15,3.89a6.15,6.15,0,0,1,.22,1.53q-.14,5.45-9.58,5.44H28.23l-1.95,9.35H40c5.1,0,8.26,1.55,9.18,4.63a2.07,2.07,0,0,1,.15,1c0,4.69-3.22,7-9.52,7H23.54l-2,12.35H59.05q18.93,0,19.22-15.22a23.56,23.56,0,0,0-.85-6.81q-2.51-8.41-12.85-8.42"/></g></g><polygon id="Fill-4" class="cls-3" points="16.76 11.84 7.65 11.84 9.38 3.58 18.49 3.58 16.76 11.84"/><polygon id="Fill-6" class="cls-3" points="11.73 32.46 0.74 32.46 2.96 21.93 13.95 21.93 11.73 32.46"/><polygon id="Fill-8" class="cls-3" points="9.44 53.64 0 53.64 1.92 44.49 11.36 44.49 9.44 53.64"/><polygon id="Fill-10" class="cls-3" points="13.51 32.47 10.63 45.31 23.62 45.31 26.54 32.47 13.51 32.47"/><polygon id="Fill-12" class="cls-3" points="16.26 11.62 13.77 22.49 24.97 22.49 27.44 11.62 16.26 11.62"/></g></g></g></svg>